<?xml version="1.0" encoding="iso-8859-1"?>
<!-- Uploaded to: SVG Repo, www.svgrepo.com, Generator: SVG Repo Mixer Tools -->
<svg fill="#778899" height="800px" width="800px" version="1.1" id="Layer_1" xmlns="http://www.w3.org/2000/svg" xmlns:xlink="http://www.w3.org/1999/xlink" 
	 viewBox="0 0 512.001 512.001" xml:space="preserve">
<path style="fill: #778899;" d="M412.374,262.829c-20.052-20.052-23.553-50.372-10.536-74.03l0,0
	c-23.659,13.017-57.478,6.014-77.532-14.04c-20.052-20.051-27.055-53.873-14.038-77.53l0,0
	c-23.659,13.017-53.977,9.514-74.03-10.538c-17.128-17.127-22.177-41.744-15.177-63.306L10.451,488.617l465.231-210.611
	C454.12,285.005,429.503,279.957,412.374,262.829z"/>
<path d="M499.315,47.454l-0.577-0.577c-16.909-16.906-44.417-16.908-61.326,0L324.998,159.29
	c-11.905-17.292-14.588-40.639-5.574-57.021c2.241-4.073,1.521-9.139-1.766-12.426c-3.288-3.288-8.354-4.007-12.426-1.766
	c-7.605,4.184-16.244,6.396-24.981,6.397c-13.834,0.001-26.84-5.387-36.622-15.169c-13.845-13.843-18.684-34.034-12.627-52.69
	c1.713-5.275-0.994-10.969-6.165-12.971c-5.171-2.004-11.006,0.382-13.294,5.435L0.93,484.307
	c-1.794,3.963-0.945,8.622,2.131,11.698c2.002,2.002,4.676,3.061,7.392,3.061c1.456,0,2.924-0.305,4.306-0.931L479.99,287.524
	c5.052-2.286,7.437-8.121,5.435-13.293c-2.003-5.172-7.695-7.878-12.971-6.165c-5.189,1.684-10.596,2.538-16.071,2.538
	c-13.835,0-26.841-5.386-36.62-15.164c-16.205-16.206-19.811-41.538-8.77-61.604c2.241-4.073,1.521-9.138-1.765-12.426
	c-3.289-3.288-8.355-4.007-12.428-1.766c-6.32,3.478-13.988,5.315-22.173,5.316c-12.321,0.001-24.741-3.977-34.838-10.905
	L452.191,61.656c8.759-8.761,23.011-8.76,31.777,0.006l0.577,0.576c8.76,8.759,8.76,23.012,0,31.77
	c-4.081,4.081-4.081,10.697,0.001,14.778c4.079,4.08,10.697,4.08,14.778-0.001C516.228,91.878,516.228,64.368,499.315,47.454z
	 M385.022,205.122c-4.372,23.19,2.702,47.833,19.964,65.096c7.438,7.437,16.203,13.063,25.763,16.657L31.408,467.659L212.186,68.331
	c3.583,9.482,9.187,18.273,16.664,25.751c13.731,13.729,31.985,21.291,51.402,21.29c4.597,0,9.176-0.438,13.668-1.296
	c-3.408,23.582,4.911,49.988,22.998,68.074c14.849,14.847,36.424,23.711,57.711,23.71
	C378.155,205.859,381.629,205.61,385.022,205.122z"/>
</svg>